<?xml version="1.0" encoding="us-ascii" standalone="no"?><svg xmlns="http://www.w3.org/2000/svg" xmlns:xlink="http://www.w3.org/1999/xlink" contentStyleType="text/css" height="620px" preserveAspectRatio="none" style="width:1362px;height:620px;background:#FFFFFF;" version="1.1" viewBox="0 0 1362 620" width="1362px" zoomAndPan="magnify"><defs/><g><rect fill="#FFFFFF" height="430.2578" style="stroke:#181818;stroke-width:1.0;" width="10" x="31" y="91.2969"/><rect fill="#FFFFFF" height="409.125" style="stroke:#181818;stroke-width:1.0;" width="10" x="300" y="112.4297"/><rect fill="#FFFFFF" height="276.3281" style="stroke:#181818;stroke-width:1.0;" width="10" x="596" y="216.0938"/><rect fill="#FFFFFF" height="218.0625" style="stroke:#181818;stroke-width:1.0;" width="10" x="755" y="245.2266"/><rect fill="#FFFFFF" height="87.3984" style="stroke:#181818;stroke-width:1.0;" width="10" x="1112" y="304.625"/><rect fill="#FFFFFF" height="29.1328" style="stroke:#181818;stroke-width:1.0;" width="10" x="1289" y="333.7578"/><line style="stroke:#181818;stroke-width:0.5;stroke-dasharray:5.0,5.0;" x1="36" x2="36" y1="81.2969" y2="539.5547"/><line style="stroke:#181818;stroke-width:0.5;stroke-dasharray:5.0,5.0;" x1="304.5" x2="304.5" y1="81.2969" y2="539.5547"/><line style="stroke:#181818;stroke-width:0.5;stroke-dasharray:5.0,5.0;" x1="601" x2="601" y1="81.2969" y2="539.5547"/><line style="stroke:#181818;stroke-width:0.5;stroke-dasharray:5.0,5.0;" x1="760" x2="760" y1="81.2969" y2="539.5547"/><line style="stroke:#181818;stroke-width:0.5;stroke-dasharray:5.0,5.0;" x1="1116.5" x2="1116.5" y1="81.2969" y2="539.5547"/><line style="stroke:#181818;stroke-width:0.5;stroke-dasharray:5.0,5.0;" x1="1293.5" x2="1293.5" y1="81.2969" y2="539.5547"/><text fill="#000000" font-family="sans-serif" font-size="14" lengthAdjust="spacing" textLength="56" x="5" y="77.9951">&#12518;&#12540;&#12470;&#12540;</text><ellipse cx="36" cy="13.5" fill="#E2E2F0" rx="8" ry="8" style="stroke:#181818;stroke-width:0.5;"/><path d="M36,21.5 L36,48.5 M23,29.5 L49,29.5 M36,48.5 L23,63.5 M36,48.5 L49,63.5 " fill="none" style="stroke:#181818;stroke-width:0.5;"/><text fill="#000000" font-family="sans-serif" font-size="14" lengthAdjust="spacing" textLength="56" x="5" y="551.5498">&#12518;&#12540;&#12470;&#12540;</text><ellipse cx="36" cy="563.3516" fill="#E2E2F0" rx="8" ry="8" style="stroke:#181818;stroke-width:0.5;"/><path d="M36,571.3516 L36,598.3516 M23,579.3516 L49,579.3516 M36,598.3516 L23,613.3516 M36,598.3516 L49,613.3516 " fill="none" style="stroke:#181818;stroke-width:0.5;"/><rect fill="#E2E2F0" height="30.2969" rx="2.5" ry="2.5" style="stroke:#181818;stroke-width:0.5;" width="77" x="266.5" y="50"/><text fill="#000000" font-family="sans-serif" font-size="14" lengthAdjust="spacing" textLength="63" x="273.5" y="69.9951">Frontend</text><rect fill="#E2E2F0" height="30.2969" rx="2.5" ry="2.5" style="stroke:#181818;stroke-width:0.5;" width="77" x="266.5" y="538.5547"/><text fill="#000000" font-family="sans-serif" font-size="14" lengthAdjust="spacing" textLength="63" x="273.5" y="558.5498">Frontend</text><rect fill="#E2E2F0" height="30.2969" rx="2.5" ry="2.5" style="stroke:#181818;stroke-width:0.5;" width="94" x="554" y="50"/><text fill="#000000" font-family="sans-serif" font-size="14" lengthAdjust="spacing" textLength="80" x="561" y="69.9951">APIGateway</text><rect fill="#E2E2F0" height="30.2969" rx="2.5" ry="2.5" style="stroke:#181818;stroke-width:0.5;" width="94" x="554" y="538.5547"/><text fill="#000000" font-family="sans-serif" font-size="14" lengthAdjust="spacing" textLength="80" x="561" y="558.5498">APIGateway</text><rect fill="#E2E2F0" height="30.2969" rx="2.5" ry="2.5" style="stroke:#181818;stroke-width:0.5;" width="68" x="726" y="50"/><text fill="#000000" font-family="sans-serif" font-size="14" lengthAdjust="spacing" textLength="54" x="733" y="69.9951">Lambda</text><rect fill="#E2E2F0" height="30.2969" rx="2.5" ry="2.5" style="stroke:#181818;stroke-width:0.5;" width="68" x="726" y="538.5547"/><text fill="#000000" font-family="sans-serif" font-size="14" lengthAdjust="spacing" textLength="54" x="733" y="558.5498">Lambda</text><rect fill="#E2E2F0" height="30.2969" rx="2.5" ry="2.5" style="stroke:#181818;stroke-width:0.5;" width="43" x="1095.5" y="50"/><text fill="#000000" font-family="sans-serif" font-size="14" lengthAdjust="spacing" textLength="29" x="1102.5" y="69.9951">GAS</text><rect fill="#E2E2F0" height="30.2969" rx="2.5" ry="2.5" style="stroke:#181818;stroke-width:0.5;" width="43" x="1095.5" y="538.5547"/><text fill="#000000" font-family="sans-serif" font-size="14" lengthAdjust="spacing" textLength="29" x="1102.5" y="558.5498">GAS</text><rect fill="#E2E2F0" height="30.2969" rx="2.5" ry="2.5" style="stroke:#181818;stroke-width:0.5;" width="125" x="1231.5" y="50"/><text fill="#000000" font-family="sans-serif" font-size="14" lengthAdjust="spacing" textLength="111" x="1238.5" y="69.9951">GoogleCalendar</text><rect fill="#E2E2F0" height="30.2969" rx="2.5" ry="2.5" style="stroke:#181818;stroke-width:0.5;" width="125" x="1231.5" y="538.5547"/><text fill="#000000" font-family="sans-serif" font-size="14" lengthAdjust="spacing" textLength="111" x="1238.5" y="558.5498">GoogleCalendar</text><rect fill="#FFFFFF" height="430.2578" style="stroke:#181818;stroke-width:1.0;" width="10" x="31" y="91.2969"/><rect fill="#FFFFFF" height="409.125" style="stroke:#181818;stroke-width:1.0;" width="10" x="300" y="112.4297"/><rect fill="#FFFFFF" height="276.3281" style="stroke:#181818;stroke-width:1.0;" width="10" x="596" y="216.0938"/><rect fill="#FFFFFF" height="218.0625" style="stroke:#181818;stroke-width:1.0;" width="10" x="755" y="245.2266"/><rect fill="#FFFFFF" height="87.3984" style="stroke:#181818;stroke-width:1.0;" width="10" x="1112" y="304.625"/><rect fill="#FFFFFF" height="29.1328" style="stroke:#181818;stroke-width:1.0;" width="10" x="1289" y="333.7578"/><polygon fill="#181818" points="288,108.4297,298,112.4297,288,116.4297,292,112.4297" style="stroke:#181818;stroke-width:1.0;"/><line style="stroke:#181818;stroke-width:1.0;" x1="41" x2="294" y1="112.4297" y2="112.4297"/><text fill="#000000" font-family="sans-serif" font-size="13" lengthAdjust="spacing" textLength="195" x="48" y="107.3638">&#21462;&#24471;&#12377;&#12427;&#24180;&#26376;&#26085;&#12539;&#12473;&#12479;&#12483;&#12501;&#12434;&#35373;&#23450;</text><polygon fill="#181818" points="288,152.6953,298,156.6953,288,160.6953,292,156.6953" style="stroke:#181818;stroke-width:1.0;"/><line style="stroke:#181818;stroke-width:1.0;" x1="41" x2="294" y1="156.6953" y2="156.6953"/><text fill="#000000" font-family="sans-serif" font-size="13" lengthAdjust="spacing" textLength="235" x="48" y="136.4966">&#23455;&#32318;&#12487;&#12540;&#12479;&#65288;CSV&#12501;&#12449;&#12452;&#12523;&#65289;&#12434;&#20837;&#21147;&#12375;&#12289;</text><text fill="#000000" font-family="sans-serif" font-size="13" lengthAdjust="spacing" textLength="104" x="48" y="151.6294">&#29031;&#21512;&#12508;&#12479;&#12531;&#12434;&#25276;&#19979;</text><polygon fill="#181818" points="584,212.0938,594,216.0938,584,220.0938,588,216.0938" style="stroke:#181818;stroke-width:1.0;"/><line style="stroke:#181818;stroke-width:1.0;" x1="310" x2="590" y1="216.0938" y2="216.0938"/><text fill="#000000" font-family="sans-serif" font-size="13" lengthAdjust="spacing" textLength="84" x="317" y="180.7622">Post: /check?</text><text fill="#000000" font-family="sans-serif" font-size="13" lengthAdjust="spacing" textLength="39" x="317" y="195.895">year=</text><text fill="#000000" font-family="monospace" font-size="13" lengthAdjust="spacing" textLength="56" x="356" y="195.895">&amp;month=</text><text fill="#000000" font-family="sans-serif" font-size="13" lengthAdjust="spacing" textLength="88" x="412" y="195.895">&amp;start_date=</text><text fill="#000000" font-family="monospace" font-size="13" lengthAdjust="spacing" textLength="80" x="500" y="195.895">&amp;end_date=</text><text fill="#000000" font-family="sans-serif" font-size="13" lengthAdjust="spacing" textLength="4" x="580" y="195.895">,</text><text fill="#000000" font-family="sans-serif" font-size="13" lengthAdjust="spacing" textLength="239" x="317" y="211.0278">-body: {calendarId, staff, receipt_file}</text><polygon fill="#181818" points="743,241.2266,753,245.2266,743,249.2266,747,245.2266" style="stroke:#181818;stroke-width:1.0;"/><line style="stroke:#181818;stroke-width:1.0;" x1="606" x2="749" y1="245.2266" y2="245.2266"/><text fill="#000000" font-family="sans-serif" font-size="13" lengthAdjust="spacing" textLength="130" x="613" y="240.1606">&#29031;&#21512;&#20966;&#29702;&#12398;&#38306;&#25968;&#12434;&#23455;&#34892;</text><polygon fill="#181818" points="1100,300.625,1110,304.625,1100,308.625,1104,304.625" style="stroke:#181818;stroke-width:1.0;"/><line style="stroke:#181818;stroke-width:1.0;" x1="765" x2="1106" y1="304.625" y2="304.625"/><text fill="#000000" font-family="sans-serif" font-size="13" lengthAdjust="spacing" textLength="328" x="772" y="269.2935">GET: https://script.google.com/macros/s/xxxx/exec?</text><text fill="#000000" font-family="sans-serif" font-size="13" lengthAdjust="spacing" textLength="77" x="772" y="284.4263">calendarId=</text><text fill="#000000" font-family="monospace" font-size="13" lengthAdjust="spacing" textLength="56" x="849" y="284.4263">&amp;staff=</text><text fill="#000000" font-family="sans-serif" font-size="13" lengthAdjust="spacing" textLength="50" x="905" y="284.4263">&amp;year=</text><text fill="#000000" font-family="monospace" font-size="13" lengthAdjust="spacing" textLength="56" x="955" y="284.4263">&amp;month=</text><text fill="#000000" font-family="sans-serif" font-size="13" lengthAdjust="spacing" textLength="11" x="1011" y="284.4263">&amp;</text><text fill="#000000" font-family="sans-serif" font-size="13" lengthAdjust="spacing" textLength="77" x="772" y="299.5591">start_date=</text><text fill="#000000" font-family="monospace" font-size="13" lengthAdjust="spacing" textLength="80" x="849" y="299.5591">&amp;end_date=</text><polygon fill="#181818" points="1277,329.7578,1287,333.7578,1277,337.7578,1281,333.7578" style="stroke:#181818;stroke-width:1.0;"/><line style="stroke:#181818;stroke-width:1.0;" x1="1122" x2="1283" y1="333.7578" y2="333.7578"/><text fill="#000000" font-family="sans-serif" font-size="13" lengthAdjust="spacing" textLength="143" x="1129" y="328.6919">&#12459;&#12524;&#12531;&#12480;&#12540;&#12398;&#20104;&#23450;&#12434;&#21462;&#24471;</text><polygon fill="#181818" points="1133,358.8906,1123,362.8906,1133,366.8906,1129,362.8906" style="stroke:#181818;stroke-width:1.0;"/><line style="stroke:#181818;stroke-width:1.0;stroke-dasharray:2.0,2.0;" x1="1127" x2="1293" y1="362.8906" y2="362.8906"/><text fill="#000000" font-family="sans-serif" font-size="13" lengthAdjust="spacing" textLength="143" x="1139" y="357.8247">&#12459;&#12524;&#12531;&#12480;&#12540;&#12398;&#20104;&#23450;&#12434;&#36820;&#21364;</text><polygon fill="#181818" points="776,388.0234,766,392.0234,776,396.0234,772,392.0234" style="stroke:#181818;stroke-width:1.0;"/><line style="stroke:#181818;stroke-width:1.0;stroke-dasharray:2.0,2.0;" x1="770" x2="1116" y1="392.0234" y2="392.0234"/><text fill="#000000" font-family="sans-serif" font-size="13" lengthAdjust="spacing" textLength="143" x="782" y="386.9575">&#12459;&#12524;&#12531;&#12480;&#12540;&#12398;&#20104;&#23450;&#12434;&#36820;&#21364;</text><line style="stroke:#181818;stroke-width:1.0;stroke-dasharray:2.0,2.0;" x1="765" x2="807" y1="421.1563" y2="421.1563"/><line style="stroke:#181818;stroke-width:1.0;stroke-dasharray:2.0,2.0;" x1="807" x2="807" y1="421.1563" y2="434.1563"/><line style="stroke:#181818;stroke-width:1.0;stroke-dasharray:2.0,2.0;" x1="766" x2="807" y1="434.1563" y2="434.1563"/><polygon fill="#181818" points="776,430.1563,766,434.1563,776,438.1563,772,434.1563" style="stroke:#181818;stroke-width:1.0;"/><text fill="#000000" font-family="sans-serif" font-size="13" lengthAdjust="spacing" textLength="221" x="772" y="416.0903">&#12459;&#12524;&#12531;&#12480;&#12540;&#12398;&#20104;&#23450;&#12392;&#23455;&#32318;&#12487;&#12540;&#12479;&#12434;&#29031;&#21512;</text><polygon fill="#181818" points="617,459.2891,607,463.2891,617,467.2891,613,463.2891" style="stroke:#181818;stroke-width:1.0;"/><line style="stroke:#181818;stroke-width:1.0;stroke-dasharray:2.0,2.0;" x1="611" x2="759" y1="463.2891" y2="463.2891"/><text fill="#000000" font-family="sans-serif" font-size="13" lengthAdjust="spacing" textLength="91" x="623" y="458.2231">&#29031;&#21512;&#32080;&#26524;&#12434;&#36820;&#21364;</text><polygon fill="#181818" points="321,488.4219,311,492.4219,321,496.4219,317,492.4219" style="stroke:#181818;stroke-width:1.0;"/><line style="stroke:#181818;stroke-width:1.0;stroke-dasharray:2.0,2.0;" x1="315" x2="600" y1="492.4219" y2="492.4219"/><text fill="#000000" font-family="sans-serif" font-size="13" lengthAdjust="spacing" textLength="91" x="327" y="487.356">&#29031;&#21512;&#32080;&#26524;&#12434;&#36820;&#21364;</text><polygon fill="#181818" points="47,517.5547,37,521.5547,47,525.5547,43,521.5547" style="stroke:#181818;stroke-width:1.0;"/><line style="stroke:#181818;stroke-width:1.0;stroke-dasharray:2.0,2.0;" x1="41" x2="304" y1="521.5547" y2="521.5547"/><text fill="#000000" font-family="sans-serif" font-size="13" lengthAdjust="spacing" textLength="91" x="53" y="516.4888">&#29031;&#21512;&#32080;&#26524;&#12434;&#34920;&#31034;</text><!--SRC=[bLFVQzDG57xFNt7PWq_jyXvGAKFBm8T2nQV2kBkvNODjKfAW6o8ikSpLJR68Mz6LZSes2zCWE6MRPVrZxfBKf_qBdlnQ4cVz4MXwRiwztpdV-RvR8gQc8yuEEHjn-nkyXGhMJOKeRQoQwAwkgIPLPOIDACvbIvNvCZRfOxmIvECmj-CURYtAEFUfNAhcrvgsrAHpk0bbi2u8c9ZA8u3ADvLTeEAjg1a9kQ-stVCUjzvoUzCzFVRw7QztmDbtRfzoUymPusoBswydmq-kyow5ZgXCmtJs_9DppjR3vFXor9chFWXn1jpUv-peSlGSCDsr0tTZXrizlchLL7_jWzljSDOFotw1lBSnkZZP54BG03qUZuGgcW5LHDAWvE7jchf2iNvpPkP62_OrWi0mOJeBCcmFLZ2L92xKrEAY9WF44nAFQruk8DXVhnUGJWbLskP2NMdIfodLH9L4AEWa4aL2KS_k-g7VVSOjvyVsUs_hSy3CsPiCNgGGiOZHNqYbL9LG-Svz2JLCisr8ecWG7MhFBeLQpXAj9ROmqJL3DCHbU4IwJ0bmJTkEYTRhGN1j13LrwX0opC18y0iRodb8Gjm-uknZe0DR3LIqd8kp3ZWW81Sw9eEIjrz-YOe9spyWJiPlt9V7WaodOWPDPkR-VrZ0Cfdyls1Omr_y2wYHq5cOApD6AVzhrzlj_xP-BFwLVT9xyjUZYVNYAm0dipVkEi1WwE-VPG6YQvhva3t_4m00]--></g></svg>