<?xml version="1.0" encoding="us-ascii" standalone="no"?><svg xmlns="http://www.w3.org/2000/svg" xmlns:xlink="http://www.w3.org/1999/xlink" contentStyleType="text/css" height="633px" preserveAspectRatio="none" style="width:1327px;height:633px;background:#FFFFFF;" version="1.1" viewBox="0 0 1327 633" width="1327px" zoomAndPan="magnify"><defs/><g><line style="stroke:#181818;stroke-width:0.5;stroke-dasharray:5.0,5.0;" x1="36" x2="36" y1="81.2969" y2="552.5547"/><line style="stroke:#181818;stroke-width:0.5;stroke-dasharray:5.0,5.0;" x1="294.5" x2="294.5" y1="81.2969" y2="552.5547"/><line style="stroke:#181818;stroke-width:0.5;stroke-dasharray:5.0,5.0;" x1="586" x2="586" y1="81.2969" y2="552.5547"/><line style="stroke:#181818;stroke-width:0.5;stroke-dasharray:5.0,5.0;" x1="740" x2="740" y1="81.2969" y2="552.5547"/><line style="stroke:#181818;stroke-width:0.5;stroke-dasharray:5.0,5.0;" x1="1091.5" x2="1091.5" y1="81.2969" y2="552.5547"/><line style="stroke:#181818;stroke-width:0.5;stroke-dasharray:5.0,5.0;" x1="1258.5" x2="1258.5" y1="81.2969" y2="552.5547"/><text fill="#000000" font-family="sans-serif" font-size="14" lengthAdjust="spacing" textLength="56" x="5" y="77.9951">&#12518;&#12540;&#12470;&#12540;</text><ellipse cx="36" cy="13.5" fill="#E2E2F0" rx="8" ry="8" style="stroke:#181818;stroke-width:0.5;"/><path d="M36,21.5 L36,48.5 M23,29.5 L49,29.5 M36,48.5 L23,63.5 M36,48.5 L49,63.5 " fill="none" style="stroke:#181818;stroke-width:0.5;"/><text fill="#000000" font-family="sans-serif" font-size="14" lengthAdjust="spacing" textLength="56" x="5" y="564.5498">&#12518;&#12540;&#12470;&#12540;</text><ellipse cx="36" cy="576.3516" fill="#E2E2F0" rx="8" ry="8" style="stroke:#181818;stroke-width:0.5;"/><path d="M36,584.3516 L36,611.3516 M23,592.3516 L49,592.3516 M36,611.3516 L23,626.3516 M36,611.3516 L49,626.3516 " fill="none" style="stroke:#181818;stroke-width:0.5;"/><rect fill="#E2E2F0" height="30.2969" rx="2.5" ry="2.5" style="stroke:#181818;stroke-width:0.5;" width="77" x="256.5" y="50"/><text fill="#000000" font-family="sans-serif" font-size="14" lengthAdjust="spacing" textLength="63" x="263.5" y="69.9951">Frontend</text><rect fill="#E2E2F0" height="30.2969" rx="2.5" ry="2.5" style="stroke:#181818;stroke-width:0.5;" width="77" x="256.5" y="551.5547"/><text fill="#000000" font-family="sans-serif" font-size="14" lengthAdjust="spacing" textLength="63" x="263.5" y="571.5498">Frontend</text><rect fill="#E2E2F0" height="30.2969" rx="2.5" ry="2.5" style="stroke:#181818;stroke-width:0.5;" width="94" x="539" y="50"/><text fill="#000000" font-family="sans-serif" font-size="14" lengthAdjust="spacing" textLength="80" x="546" y="69.9951">APIGateway</text><rect fill="#E2E2F0" height="30.2969" rx="2.5" ry="2.5" style="stroke:#181818;stroke-width:0.5;" width="94" x="539" y="551.5547"/><text fill="#000000" font-family="sans-serif" font-size="14" lengthAdjust="spacing" textLength="80" x="546" y="571.5498">APIGateway</text><rect fill="#E2E2F0" height="30.2969" rx="2.5" ry="2.5" style="stroke:#181818;stroke-width:0.5;" width="68" x="706" y="50"/><text fill="#000000" font-family="sans-serif" font-size="14" lengthAdjust="spacing" textLength="54" x="713" y="69.9951">Lambda</text><rect fill="#E2E2F0" height="30.2969" rx="2.5" ry="2.5" style="stroke:#181818;stroke-width:0.5;" width="68" x="706" y="551.5547"/><text fill="#000000" font-family="sans-serif" font-size="14" lengthAdjust="spacing" textLength="54" x="713" y="571.5498">Lambda</text><rect fill="#E2E2F0" height="30.2969" rx="2.5" ry="2.5" style="stroke:#181818;stroke-width:0.5;" width="43" x="1070.5" y="50"/><text fill="#000000" font-family="sans-serif" font-size="14" lengthAdjust="spacing" textLength="29" x="1077.5" y="69.9951">GAS</text><rect fill="#E2E2F0" height="30.2969" rx="2.5" ry="2.5" style="stroke:#181818;stroke-width:0.5;" width="43" x="1070.5" y="551.5547"/><text fill="#000000" font-family="sans-serif" font-size="14" lengthAdjust="spacing" textLength="29" x="1077.5" y="571.5498">GAS</text><rect fill="#E2E2F0" height="30.2969" rx="2.5" ry="2.5" style="stroke:#181818;stroke-width:0.5;" width="125" x="1196.5" y="50"/><text fill="#000000" font-family="sans-serif" font-size="14" lengthAdjust="spacing" textLength="111" x="1203.5" y="69.9951">GoogleCalendar</text><rect fill="#E2E2F0" height="30.2969" rx="2.5" ry="2.5" style="stroke:#181818;stroke-width:0.5;" width="125" x="1196.5" y="551.5547"/><text fill="#000000" font-family="sans-serif" font-size="14" lengthAdjust="spacing" textLength="111" x="1203.5" y="571.5498">GoogleCalendar</text><polygon fill="#181818" points="283,108.4297,293,112.4297,283,116.4297,287,112.4297" style="stroke:#181818;stroke-width:1.0;"/><line style="stroke:#181818;stroke-width:1.0;stroke-dasharray:2.0,2.0;" x1="36" x2="289" y1="112.4297" y2="112.4297"/><text fill="#000000" font-family="sans-serif" font-size="13" lengthAdjust="spacing" textLength="195" x="43" y="107.3638">&#21462;&#24471;&#12377;&#12427;&#24180;&#26376;&#26085;&#12539;&#12473;&#12479;&#12483;&#12501;&#12434;&#35373;&#23450;</text><polygon fill="#181818" points="283,152.6953,293,156.6953,283,160.6953,287,156.6953" style="stroke:#181818;stroke-width:1.0;"/><line style="stroke:#181818;stroke-width:1.0;stroke-dasharray:2.0,2.0;" x1="36" x2="289" y1="156.6953" y2="156.6953"/><text fill="#000000" font-family="sans-serif" font-size="13" lengthAdjust="spacing" textLength="235" x="43" y="136.4966">&#23455;&#32318;&#12487;&#12540;&#12479;&#65288;CSV&#12501;&#12449;&#12452;&#12523;&#65289;&#12434;&#20837;&#21147;&#12375;&#12289;</text><text fill="#000000" font-family="sans-serif" font-size="13" lengthAdjust="spacing" textLength="104" x="43" y="151.6294">&#29031;&#21512;&#12508;&#12479;&#12531;&#12434;&#25276;&#19979;</text><polygon fill="#181818" points="574,212.0938,584,216.0938,574,220.0938,578,216.0938" style="stroke:#181818;stroke-width:1.0;"/><line style="stroke:#181818;stroke-width:1.0;stroke-dasharray:2.0,2.0;" x1="295" x2="580" y1="216.0938" y2="216.0938"/><text fill="#000000" font-family="sans-serif" font-size="13" lengthAdjust="spacing" textLength="84" x="302" y="180.7622">Post: /check?</text><text fill="#000000" font-family="sans-serif" font-size="13" lengthAdjust="spacing" textLength="39" x="302" y="195.895">year=</text><text fill="#000000" font-family="monospace" font-size="13" lengthAdjust="spacing" textLength="56" x="341" y="195.895">&amp;month=</text><text fill="#000000" font-family="sans-serif" font-size="13" lengthAdjust="spacing" textLength="88" x="397" y="195.895">&amp;start_date=</text><text fill="#000000" font-family="monospace" font-size="13" lengthAdjust="spacing" textLength="80" x="485" y="195.895">&amp;end_date=</text><text fill="#000000" font-family="sans-serif" font-size="13" lengthAdjust="spacing" textLength="4" x="565" y="195.895">,</text><text fill="#000000" font-family="sans-serif" font-size="13" lengthAdjust="spacing" textLength="239" x="302" y="211.0278">-body: {calendarId, staff, receipt_file}</text><polygon fill="#181818" points="728,241.2266,738,245.2266,728,249.2266,732,245.2266" style="stroke:#181818;stroke-width:1.0;"/><line style="stroke:#181818;stroke-width:1.0;stroke-dasharray:2.0,2.0;" x1="586" x2="734" y1="245.2266" y2="245.2266"/><text fill="#000000" font-family="sans-serif" font-size="13" lengthAdjust="spacing" textLength="130" x="593" y="240.1606">&#29031;&#21512;&#20966;&#29702;&#12398;&#38306;&#25968;&#12434;&#23455;&#34892;</text><polygon fill="#181818" points="1080,300.625,1090,304.625,1080,308.625,1084,304.625" style="stroke:#181818;stroke-width:1.0;"/><line style="stroke:#181818;stroke-width:1.0;stroke-dasharray:2.0,2.0;" x1="740" x2="1086" y1="304.625" y2="304.625"/><text fill="#000000" font-family="sans-serif" font-size="13" lengthAdjust="spacing" textLength="328" x="747" y="269.2935">GET: https://script.google.com/macros/s/xxxx/exec?</text><text fill="#000000" font-family="sans-serif" font-size="13" lengthAdjust="spacing" textLength="77" x="747" y="284.4263">calendarId=</text><text fill="#000000" font-family="monospace" font-size="13" lengthAdjust="spacing" textLength="56" x="824" y="284.4263">&amp;staff=</text><text fill="#000000" font-family="sans-serif" font-size="13" lengthAdjust="spacing" textLength="50" x="880" y="284.4263">&amp;year=</text><text fill="#000000" font-family="monospace" font-size="13" lengthAdjust="spacing" textLength="56" x="930" y="284.4263">&amp;month=</text><text fill="#000000" font-family="sans-serif" font-size="13" lengthAdjust="spacing" textLength="11" x="986" y="284.4263">&amp;</text><text fill="#000000" font-family="sans-serif" font-size="13" lengthAdjust="spacing" textLength="77" x="747" y="299.5591">start_date=</text><text fill="#000000" font-family="monospace" font-size="13" lengthAdjust="spacing" textLength="80" x="824" y="299.5591">&amp;end_date=</text><polygon fill="#181818" points="1247,329.7578,1257,333.7578,1247,337.7578,1251,333.7578" style="stroke:#181818;stroke-width:1.0;"/><line style="stroke:#181818;stroke-width:1.0;stroke-dasharray:2.0,2.0;" x1="1092" x2="1253" y1="333.7578" y2="333.7578"/><text fill="#000000" font-family="sans-serif" font-size="13" lengthAdjust="spacing" textLength="143" x="1099" y="328.6919">&#12459;&#12524;&#12531;&#12480;&#12540;&#12398;&#20104;&#23450;&#12434;&#21462;&#24471;</text><polygon fill="#181818" points="1103,358.8906,1093,362.8906,1103,366.8906,1099,362.8906" style="stroke:#181818;stroke-width:1.0;"/><line style="stroke:#181818;stroke-width:1.0;stroke-dasharray:2.0,2.0;" x1="1097" x2="1258" y1="362.8906" y2="362.8906"/><text fill="#000000" font-family="sans-serif" font-size="13" lengthAdjust="spacing" textLength="143" x="1109" y="357.8247">&#12459;&#12524;&#12531;&#12480;&#12540;&#12398;&#20104;&#23450;&#12434;&#36820;&#21364;</text><polygon fill="#181818" points="751,388.0234,741,392.0234,751,396.0234,747,392.0234" style="stroke:#181818;stroke-width:1.0;"/><line style="stroke:#181818;stroke-width:1.0;stroke-dasharray:2.0,2.0;" x1="745" x2="1091" y1="392.0234" y2="392.0234"/><text fill="#000000" font-family="sans-serif" font-size="13" lengthAdjust="spacing" textLength="143" x="757" y="386.9575">&#12459;&#12524;&#12531;&#12480;&#12540;&#12398;&#20104;&#23450;&#12434;&#36820;&#21364;</text><line style="stroke:#181818;stroke-width:1.0;stroke-dasharray:2.0,2.0;" x1="740" x2="782" y1="421.1563" y2="421.1563"/><line style="stroke:#181818;stroke-width:1.0;stroke-dasharray:2.0,2.0;" x1="782" x2="782" y1="421.1563" y2="434.1563"/><line style="stroke:#181818;stroke-width:1.0;stroke-dasharray:2.0,2.0;" x1="741" x2="782" y1="434.1563" y2="434.1563"/><polygon fill="#181818" points="751,430.1563,741,434.1563,751,438.1563,747,434.1563" style="stroke:#181818;stroke-width:1.0;"/><text fill="#000000" font-family="sans-serif" font-size="13" lengthAdjust="spacing" textLength="221" x="747" y="416.0903">&#12459;&#12524;&#12531;&#12480;&#12540;&#12398;&#20104;&#23450;&#12392;&#23455;&#32318;&#12487;&#12540;&#12479;&#12434;&#29031;&#21512;</text><polygon fill="#181818" points="597,459.2891,587,463.2891,597,467.2891,593,463.2891" style="stroke:#181818;stroke-width:1.0;"/><line style="stroke:#181818;stroke-width:1.0;stroke-dasharray:2.0,2.0;" x1="591" x2="739" y1="463.2891" y2="463.2891"/><text fill="#000000" font-family="sans-serif" font-size="13" lengthAdjust="spacing" textLength="91" x="603" y="458.2231">&#29031;&#21512;&#32080;&#26524;&#12434;&#36820;&#21364;</text><polygon fill="#181818" points="306,488.4219,296,492.4219,306,496.4219,302,492.4219" style="stroke:#181818;stroke-width:1.0;"/><line style="stroke:#181818;stroke-width:1.0;stroke-dasharray:2.0,2.0;" x1="300" x2="585" y1="492.4219" y2="492.4219"/><text fill="#000000" font-family="sans-serif" font-size="13" lengthAdjust="spacing" textLength="91" x="312" y="487.356">&#29031;&#21512;&#32080;&#26524;&#12434;&#36820;&#21364;</text><line style="stroke:#181818;stroke-width:1.0;stroke-dasharray:2.0,2.0;" x1="295" x2="337" y1="521.5547" y2="521.5547"/><line style="stroke:#181818;stroke-width:1.0;stroke-dasharray:2.0,2.0;" x1="337" x2="337" y1="521.5547" y2="534.5547"/><line style="stroke:#181818;stroke-width:1.0;stroke-dasharray:2.0,2.0;" x1="296" x2="337" y1="534.5547" y2="534.5547"/><polygon fill="#181818" points="306,530.5547,296,534.5547,306,538.5547,302,534.5547" style="stroke:#181818;stroke-width:1.0;"/><text fill="#000000" font-family="sans-serif" font-size="13" lengthAdjust="spacing" textLength="91" x="302" y="516.4888">&#29031;&#21512;&#32080;&#26524;&#12434;&#34920;&#31034;</text><!--SRC=[XLBVQzDG57xFNt7PWq_jyXvGAKFBm8T2nQV2kBkvMSlQf2GNt11XoMMkRef5t8fQDYhRB4o3u9HjblMFERj9VTg_uCsFsaQjoqCuoJdd-yvtlbCWpB8Hy6FW0_2-oxTImZQhaLeJcmpTjosJKLD7s4dYJBPGMYnYHX_ZzIYVXfcA1xYnhEFChsAXdFssh9KwNS1rIODjHPcU1UNpTn9U3ObNU-Ao0-vRy7R4-MdGRGMT8-0_m3i7RmYS0zy5x_Me_rduxsQZ-0VXsINmhJWxl1wq5igFuiuUU8V0Jwu7poMAs3mIs-_1xS26Mp73pO-YtGBUZOc-odomFRWwsr5Yq1W-5Q-XakL86fLKALczMp7NARPlpytTQiZ2QXGuJ6fVqcLvz2KrZ-DSnSmlMxg4U4BIPIpgEIJh3IE7R4fehScMZ5gTFbN6Mu-OanLhA1bIR1s7xMVW-Z_tFWIxNo8f_i6ezq99of9P2sKD5Uyzr52LiQQZgQf3R0a-ln9RCK-iXjh0nBOSrL7NvAFIDKgacCbSgHB3Y8A_D5RCcIeLIPuCaR5TG-2T0FyKRPTlHDwu_jL5IpePAOYTLx8T4oN_wHmDtuYNfxyvnwkwkMDgMpSskVq_Zah296PabZu-a2GLVci7-zsf4QSSJK_rtuMJavjHrkk7XnU_0000]--></g></svg>