<?xml version="1.0" encoding="us-ascii" standalone="no"?><svg xmlns="http://www.w3.org/2000/svg" xmlns:xlink="http://www.w3.org/1999/xlink" contentStyleType="text/css" height="369px" preserveAspectRatio="none" style="width:623px;height:369px;background:#FFFFFF;" version="1.1" viewBox="0 0 623 369" width="623px" zoomAndPan="magnify"><defs/><g><line style="stroke:#181818;stroke-width:0.5;stroke-dasharray:5.0,5.0;" x1="36" x2="36" y1="81.2969" y2="289.0938"/><line style="stroke:#181818;stroke-width:0.5;stroke-dasharray:5.0,5.0;" x1="163.5" x2="163.5" y1="81.2969" y2="289.0938"/><line style="stroke:#181818;stroke-width:0.5;stroke-dasharray:5.0,5.0;" x1="455" x2="455" y1="81.2969" y2="289.0938"/><line style="stroke:#181818;stroke-width:0.5;stroke-dasharray:5.0,5.0;" x1="583" x2="583" y1="81.2969" y2="289.0938"/><text fill="#000000" font-family="sans-serif" font-size="14" lengthAdjust="spacing" textLength="56" x="5" y="77.9951">&#12518;&#12540;&#12470;&#12540;</text><ellipse cx="36" cy="13.5" fill="#E2E2F0" rx="8" ry="8" style="stroke:#181818;stroke-width:0.5;"/><path d="M36,21.5 L36,48.5 M23,29.5 L49,29.5 M36,48.5 L23,63.5 M36,48.5 L49,63.5 " fill="none" style="stroke:#181818;stroke-width:0.5;"/><text fill="#000000" font-family="sans-serif" font-size="14" lengthAdjust="spacing" textLength="56" x="5" y="301.0889">&#12518;&#12540;&#12470;&#12540;</text><ellipse cx="36" cy="312.8906" fill="#E2E2F0" rx="8" ry="8" style="stroke:#181818;stroke-width:0.5;"/><path d="M36,320.8906 L36,347.8906 M23,328.8906 L49,328.8906 M36,347.8906 L23,362.8906 M36,347.8906 L49,362.8906 " fill="none" style="stroke:#181818;stroke-width:0.5;"/><rect fill="#E2E2F0" height="30.2969" rx="2.5" ry="2.5" style="stroke:#181818;stroke-width:0.5;" width="77" x="125.5" y="50"/><text fill="#000000" font-family="sans-serif" font-size="14" lengthAdjust="spacing" textLength="63" x="132.5" y="69.9951">Frontend</text><rect fill="#E2E2F0" height="30.2969" rx="2.5" ry="2.5" style="stroke:#181818;stroke-width:0.5;" width="77" x="125.5" y="288.0938"/><text fill="#000000" font-family="sans-serif" font-size="14" lengthAdjust="spacing" textLength="63" x="132.5" y="308.0889">Frontend</text><rect fill="#E2E2F0" height="30.2969" rx="2.5" ry="2.5" style="stroke:#181818;stroke-width:0.5;" width="94" x="408" y="50"/><text fill="#000000" font-family="sans-serif" font-size="14" lengthAdjust="spacing" textLength="80" x="415" y="69.9951">APIGateway</text><rect fill="#E2E2F0" height="30.2969" rx="2.5" ry="2.5" style="stroke:#181818;stroke-width:0.5;" width="94" x="408" y="288.0938"/><text fill="#000000" font-family="sans-serif" font-size="14" lengthAdjust="spacing" textLength="80" x="415" y="308.0889">APIGateway</text><rect fill="#E2E2F0" height="30.2969" rx="2.5" ry="2.5" style="stroke:#181818;stroke-width:0.5;" width="68" x="549" y="50"/><text fill="#000000" font-family="sans-serif" font-size="14" lengthAdjust="spacing" textLength="54" x="556" y="69.9951">Cognito</text><rect fill="#E2E2F0" height="30.2969" rx="2.5" ry="2.5" style="stroke:#181818;stroke-width:0.5;" width="68" x="549" y="288.0938"/><text fill="#000000" font-family="sans-serif" font-size="14" lengthAdjust="spacing" textLength="54" x="556" y="308.0889">Cognito</text><polygon fill="#181818" points="152,108.4297,162,112.4297,152,116.4297,156,112.4297" style="stroke:#181818;stroke-width:1.0;"/><line style="stroke:#181818;stroke-width:1.0;stroke-dasharray:2.0,2.0;" x1="36" x2="158" y1="112.4297" y2="112.4297"/><text fill="#000000" font-family="sans-serif" font-size="13" lengthAdjust="spacing" textLength="104" x="43" y="107.3638">&#12518;&#12540;&#12470;&#12540;&#24773;&#22577;&#20837;&#21147;</text><polygon fill="#181818" points="443,137.5625,453,141.5625,443,145.5625,447,141.5625" style="stroke:#181818;stroke-width:1.0;"/><line style="stroke:#181818;stroke-width:1.0;stroke-dasharray:2.0,2.0;" x1="164" x2="449" y1="141.5625" y2="141.5625"/><text fill="#000000" font-family="sans-serif" font-size="13" lengthAdjust="spacing" textLength="267" x="171" y="136.4966">Post: /login -body: {username, password}</text><polygon fill="#181818" points="571,166.6953,581,170.6953,571,174.6953,575,170.6953" style="stroke:#181818;stroke-width:1.0;"/><line style="stroke:#181818;stroke-width:1.0;stroke-dasharray:2.0,2.0;" x1="455" x2="577" y1="170.6953" y2="170.6953"/><text fill="#000000" font-family="sans-serif" font-size="13" lengthAdjust="spacing" textLength="104" x="462" y="165.6294">&#12518;&#12540;&#12470;&#12540;&#24773;&#22577;&#26908;&#35388;</text><polygon fill="#181818" points="466,195.8281,456,199.8281,466,203.8281,462,199.8281" style="stroke:#181818;stroke-width:1.0;"/><line style="stroke:#181818;stroke-width:1.0;stroke-dasharray:2.0,2.0;" x1="460" x2="582" y1="199.8281" y2="199.8281"/><text fill="#000000" font-family="sans-serif" font-size="13" lengthAdjust="spacing" textLength="98" x="472" y="194.7622">[idToken]&#12434;&#36820;&#21364;</text><polygon fill="#181818" points="175,224.9609,165,228.9609,175,232.9609,171,228.9609" style="stroke:#181818;stroke-width:1.0;"/><line style="stroke:#181818;stroke-width:1.0;stroke-dasharray:2.0,2.0;" x1="169" x2="454" y1="228.9609" y2="228.9609"/><text fill="#000000" font-family="sans-serif" font-size="13" lengthAdjust="spacing" textLength="98" x="181" y="223.895">[idToken]&#12434;&#36820;&#21364;</text><line style="stroke:#181818;stroke-width:1.0;stroke-dasharray:2.0,2.0;" x1="164" x2="206" y1="258.0938" y2="258.0938"/><line style="stroke:#181818;stroke-width:1.0;stroke-dasharray:2.0,2.0;" x1="206" x2="206" y1="258.0938" y2="271.0938"/><line style="stroke:#181818;stroke-width:1.0;stroke-dasharray:2.0,2.0;" x1="165" x2="206" y1="271.0938" y2="271.0938"/><polygon fill="#181818" points="175,267.0938,165,271.0938,175,275.0938,171,271.0938" style="stroke:#181818;stroke-width:1.0;"/><text fill="#000000" font-family="sans-serif" font-size="13" lengthAdjust="spacing" textLength="158" x="171" y="253.0278">Cookie&#12395;SessionID&#12434;&#20445;&#23384;</text><!--SRC=[SqmkoIzIUDoyx77pdiTDsu0aLq1YKKbcScP1Obw9WbjHVbv9QbwAGc8nX8qYwnZWwPvOabgUM0cIXp9HL3Zdf-TbbkHpSI7ReA2hQmSnpGh5vcVDhKyNR7pQklHfrsmki3nO9THSAuM0_6AW3lsS_FJCF0NTfFmKe5XrQN5gKLvYRggEGa5YSN5vVb5ABHVCKI3TK1TWi-dPaZalLkpXWgf0jIiwCoKaFpirB_PnqwGN-wSyxTs2OYhKzLXK8TmDLUESdv-TcVguSNLmQd5nPdwUfmjGyPFzSv-kdS450000]--></g></svg>