<?xml version="1.0" encoding="us-ascii" standalone="no"?><svg xmlns="http://www.w3.org/2000/svg" xmlns:xlink="http://www.w3.org/1999/xlink" contentStyleType="text/css" height="898px" preserveAspectRatio="none" style="width:397px;height:898px;background:#FFFFFF;" version="1.1" viewBox="0 0 397 898" width="397px" zoomAndPan="magnify"><defs/><g><!--cluster ReceiptChecker--><g id="cluster_ReceiptChecker"><rect fill="none" height="640" rx="2.5" ry="2.5" style="stroke:#181818;stroke-width:1.0;" width="309" x="82" y="7"/><text fill="#000000" font-family="sans-serif" font-size="14" font-weight="bold" lengthAdjust="spacing" textLength="125" x="174" y="21.9951">ReceiptChecker</text></g><!--cluster Google????????--><g id="cluster_Google&#12459;&#12524;&#12531;&#12480;&#12540;&#12398;&#35373;&#23450;"><path d="M108.5,50 L277.5,50 A3.75,3.75 0 0 1 280,52.5 L287,72.2969 L364.5,72.2969 A2.5,2.5 0 0 1 367,74.7969 L367,296.5 A2.5,2.5 0 0 1 364.5,299 L108.5,299 A2.5,2.5 0 0 1 106,296.5 L106,52.5 A2.5,2.5 0 0 1 108.5,50 " fill="none" style="stroke:#000000;stroke-width:1.5;"/><line style="stroke:#000000;stroke-width:1.5;" x1="106" x2="287" y1="72.2969" y2="72.2969"/><text fill="#000000" font-family="sans-serif" font-size="14" font-weight="bold" lengthAdjust="spacing" textLength="168" x="110" y="64.9951">Google&#12459;&#12524;&#12531;&#12480;&#12540;&#12398;&#35373;&#23450;</text></g><!--cluster ????--><g id="cluster_&#29031;&#21512;&#20316;&#26989;"><path d="M127.5,323 L184.5,323 A3.75,3.75 0 0 1 187,325.5 L194,345.2969 L345.5,345.2969 A2.5,2.5 0 0 1 348,347.7969 L348,620.5 A2.5,2.5 0 0 1 345.5,623 L127.5,623 A2.5,2.5 0 0 1 125,620.5 L125,325.5 A2.5,2.5 0 0 1 127.5,323 " fill="none" style="stroke:#000000;stroke-width:1.5;"/><line style="stroke:#000000;stroke-width:1.5;" x1="125" x2="194" y1="345.2969" y2="345.2969"/><text fill="#000000" font-family="sans-serif" font-size="14" font-weight="bold" lengthAdjust="spacing" textLength="56" x="129" y="337.9951">&#29031;&#21512;&#20316;&#26989;</text></g><!--cluster GoogleSpreadSheet--><g id="cluster_GoogleSpreadSheet"><rect fill="none" height="221" rx="2.5" ry="2.5" style="stroke:#181818;stroke-width:1.0;" width="224" x="124.5" y="671"/><text fill="#000000" font-family="sans-serif" font-size="14" font-weight="bold" lengthAdjust="spacing" textLength="158" x="157.5" y="685.9951">GoogleSpreadSheet</text></g><!--cluster ???????--><g id="cluster_&#32887;&#21729;&#24773;&#22577;&#12398;&#35373;&#23450;"><path d="M151,714 L250,714 A3.75,3.75 0 0 1 252.5,716.5 L259.5,736.2969 L322,736.2969 A2.5,2.5 0 0 1 324.5,738.7969 L324.5,865.5 A2.5,2.5 0 0 1 322,868 L151,868 A2.5,2.5 0 0 1 148.5,865.5 L148.5,716.5 A2.5,2.5 0 0 1 151,714 " fill="none" style="stroke:#000000;stroke-width:1.5;"/><line style="stroke:#000000;stroke-width:1.5;" x1="148.5" x2="259.5" y1="736.2969" y2="736.2969"/><text fill="#000000" font-family="sans-serif" font-size="14" font-weight="bold" lengthAdjust="spacing" textLength="98" x="152.5" y="728.9951">&#32887;&#21729;&#24773;&#22577;&#12398;&#35373;&#23450;</text></g><g id="elem_&#21462;&#24471;&#12377;&#12427;&#24180;&#26376;&#12434;&#35373;&#23450;"><ellipse cx="236.6379" cy="104.0276" fill="#F1F1F1" rx="83.1379" ry="19.0276" style="stroke:#181818;stroke-width:0.5;"/><text fill="#000000" font-family="sans-serif" font-size="14" lengthAdjust="spacing" textLength="126" x="173.0914" y="107.0594">&#21462;&#24471;&#12377;&#12427;&#24180;&#26376;&#12434;&#35373;&#23450;</text></g><g id="elem_&#21462;&#24471;&#12377;&#12427;&#38283;&#22987;&#26085;&#12392;&#32066;&#20102;&#26085;&#12434;&#35373;&#23450;"><ellipse cx="236.6957" cy="183.8391" fill="#F1F1F1" rx="114.6957" ry="25.3391" style="stroke:#181818;stroke-width:0.5;"/><text fill="#000000" font-family="sans-serif" font-size="14" lengthAdjust="spacing" textLength="196" x="138.6957" y="186.6858">&#21462;&#24471;&#12377;&#12427;&#38283;&#22987;&#26085;&#12392;&#32066;&#20102;&#26085;&#12434;&#35373;&#23450;</text></g><g id="elem_&#29031;&#21512;&#12377;&#12427;&#32887;&#21729;&#12434;&#35373;&#23450;"><ellipse cx="236.6379" cy="264.0276" fill="#F1F1F1" rx="83.1379" ry="19.0276" style="stroke:#181818;stroke-width:0.5;"/><text fill="#000000" font-family="sans-serif" font-size="14" lengthAdjust="spacing" textLength="126" x="173.0914" y="267.0594">&#29031;&#21512;&#12377;&#12427;&#32887;&#21729;&#12434;&#35373;&#23450;</text></g><g id="elem_&#35370;&#21839;&#12487;&#12540;&#12479;&#12434;&#20837;&#21147;"><ellipse cx="236.3536" cy="375.8707" fill="#F1F1F1" rx="77.3536" ry="17.8707" style="stroke:#181818;stroke-width:0.5;"/><text fill="#000000" font-family="sans-serif" font-size="14" lengthAdjust="spacing" textLength="112" x="177.6333" y="379.5454">&#35370;&#21839;&#12487;&#12540;&#12479;&#12434;&#20837;&#21147;</text></g><g id="elem_&#29031;&#21512;&#12377;&#12427;"><ellipse cx="236.3543" cy="444.2084" fill="#F1F1F1" rx="51.8543" ry="14.7084" style="stroke:#181818;stroke-width:0.5;"/><text fill="#000000" font-family="sans-serif" font-size="14" lengthAdjust="spacing" textLength="56" x="205.3543" y="447.956">&#29031;&#21512;&#12377;&#12427;</text></g><g id="elem_&#29031;&#21512;&#32080;&#26524;&#12434;&#30906;&#35469;"><ellipse cx="236.4293" cy="510.7859" fill="#F1F1F1" rx="71.9293" ry="16.7859" style="stroke:#181818;stroke-width:0.5;"/><text fill="#000000" font-family="sans-serif" font-size="14" lengthAdjust="spacing" textLength="98" x="184.4293" y="514.5334">&#29031;&#21512;&#32080;&#26524;&#12434;&#30906;&#35469;</text></g><g id="elem_&#29031;&#21512;&#32080;&#26524;&#12434;&#12480;&#12454;&#12531;&#12525;&#12540;&#12489;"><ellipse cx="236.4604" cy="584.9921" fill="#F1F1F1" rx="95.4604" ry="21.4921" style="stroke:#181818;stroke-width:0.5;"/><text fill="#000000" font-family="sans-serif" font-size="14" lengthAdjust="spacing" textLength="154" x="159.4604" y="587.8388">&#29031;&#21512;&#32080;&#26524;&#12434;&#12480;&#12454;&#12531;&#12525;&#12540;&#12489;</text></g><g id="elem_&#32887;&#21729;&#24773;&#22577;&#12434;&#36861;&#21152;"><ellipse cx="236.4293" cy="765.7859" fill="#F1F1F1" rx="71.9293" ry="16.7859" style="stroke:#181818;stroke-width:0.5;"/><text fill="#000000" font-family="sans-serif" font-size="14" lengthAdjust="spacing" textLength="98" x="184.4293" y="769.5334">&#32887;&#21729;&#24773;&#22577;&#12434;&#36861;&#21152;</text></g><g id="elem_&#32887;&#21729;&#24773;&#22577;&#12434;&#32232;&#38598;"><ellipse cx="236.4293" cy="834.7859" fill="#F1F1F1" rx="71.9293" ry="16.7859" style="stroke:#181818;stroke-width:0.5;"/><text fill="#000000" font-family="sans-serif" font-size="14" lengthAdjust="spacing" textLength="98" x="184.4293" y="838.5334">&#32887;&#21729;&#24773;&#22577;&#12434;&#32232;&#38598;</text></g><!--entity ????--><g id="elem_&#12518;&#12540;&#12470;&#12540;"><ellipse cx="34" cy="414.5" fill="#F1F1F1" rx="8" ry="8" style="stroke:#181818;stroke-width:0.5;"/><path d="M34,422.5 L34,449.5 M21,430.5 L47,430.5 M34,449.5 L21,464.5 M34,449.5 L47,464.5 " fill="none" style="stroke:#181818;stroke-width:0.5;"/><text fill="#000000" font-family="sans-serif" font-size="14" lengthAdjust="spacing" textLength="56" x="6" y="478.9951">&#12518;&#12540;&#12470;&#12540;</text></g><!--link ???? to ?????????--><g id="link_&#12518;&#12540;&#12470;&#12540;_&#21462;&#24471;&#12377;&#12427;&#24180;&#26376;&#12434;&#35373;&#23450;"><path d="M34.67,406 C34.86,333.46 39.43,179.1 74,141 C92.83,120.24 120.72,109.93 148.05,105.11 " fill="none" id="&#12518;&#12540;&#12470;&#12540;-to-&#21462;&#24471;&#12377;&#12427;&#24180;&#26376;&#12434;&#35373;&#23450;" style="stroke:#181818;stroke-width:1.0;"/><polygon fill="#181818" points="153.14,104.27,143.6154,101.7637,148.2046,105.0711,144.8972,109.6603,153.14,104.27" style="stroke:#181818;stroke-width:1.0;"/></g><!--link ???? to ??????????????--><g id="link_&#12518;&#12540;&#12470;&#12540;_&#21462;&#24471;&#12377;&#12427;&#38283;&#22987;&#26085;&#12392;&#32066;&#20102;&#26085;&#12434;&#35373;&#23450;"><path d="M37.04,405.6 C40.76,350.41 50.53,252.48 74,227 C87.77,212.05 106.1,202.06 125.46,195.43 " fill="none" id="&#12518;&#12540;&#12470;&#12540;-to-&#21462;&#24471;&#12377;&#12427;&#38283;&#22987;&#26085;&#12392;&#32066;&#20102;&#26085;&#12434;&#35373;&#23450;" style="stroke:#181818;stroke-width:1.0;"/><polygon fill="#181818" points="130.4,193.82,120.605,192.7917,125.6439,195.3625,123.073,200.4014,130.4,193.82" style="stroke:#181818;stroke-width:1.0;"/></g><!--link ???? to ?????????--><g id="link_&#12518;&#12540;&#12470;&#12540;_&#29031;&#21512;&#12377;&#12427;&#32887;&#21729;&#12434;&#35373;&#23450;"><path d="M42.32,405.91 C47.99,384.97 57.71,359.73 74,342 C101.61,311.95 143.27,292.22 177.37,280.13 " fill="none" id="&#12518;&#12540;&#12470;&#12540;-to-&#29031;&#21512;&#12377;&#12427;&#32887;&#21729;&#12434;&#35373;&#23450;" style="stroke:#181818;stroke-width:1.0;"/><polygon fill="#181818" points="182.34,278.4,172.525,277.5845,177.6185,280.0454,175.1576,285.1389,182.34,278.4" style="stroke:#181818;stroke-width:1.0;"/></g><!--link ???? to ???????--><g id="link_&#12518;&#12540;&#12470;&#12540;_&#32887;&#21729;&#24773;&#22577;&#12434;&#36861;&#21152;"><path d="M36.48,482.12 C39.46,520.15 48.26,579.1 74,623 C106.4,678.26 167.6,723.51 204.65,747.46 " fill="none" id="&#12518;&#12540;&#12470;&#12540;-to-&#32887;&#21729;&#24773;&#22577;&#12434;&#36861;&#21152;" style="stroke:#181818;stroke-width:1.0;"/><polygon fill="#181818" points="209.05,750.28,203.6297,742.0568,204.8399,747.5827,199.3141,748.7929,209.05,750.28" style="stroke:#181818;stroke-width:1.0;"/></g><!--link ???? to ???????--><g id="link_&#12518;&#12540;&#12470;&#12540;_&#32887;&#21729;&#24773;&#22577;&#12434;&#32232;&#38598;"><path d="M36.68,482.05 C40.88,569.02 53.01,776.7 74,800 C95.42,823.78 128.83,833.48 159.73,836.86 " fill="none" id="&#12518;&#12540;&#12470;&#12540;-to-&#32887;&#21729;&#24773;&#22577;&#12434;&#32232;&#38598;" style="stroke:#181818;stroke-width:1.0;"/><polygon fill="#181818" points="165.06,837.38,156.4916,832.5238,160.0837,836.8938,155.7137,840.4859,165.06,837.38" style="stroke:#181818;stroke-width:1.0;"/></g><!--link ???? to ????????--><g id="link_&#12518;&#12540;&#12470;&#12540;_&#35370;&#21839;&#12487;&#12540;&#12479;&#12434;&#20837;&#21147;"><path d="M62.03,419.22 C65.87,416.5 69.91,413.99 74,412 C101.11,398.8 133.14,390.37 161.5,385.02 " fill="none" id="&#12518;&#12540;&#12470;&#12540;-to-&#35370;&#21839;&#12487;&#12540;&#12479;&#12434;&#20837;&#21147;" style="stroke:#181818;stroke-width:1.0;"/><polygon fill="#181818" points="166.75,384.06,157.1767,381.7467,161.8318,384.9607,158.6178,389.6159,166.75,384.06" style="stroke:#181818;stroke-width:1.0;"/></g><!--link ???? to ????--><g id="link_&#12518;&#12540;&#12470;&#12540;_&#29031;&#21512;&#12377;&#12427;"><path d="M62.04,444 C91.91,444 140.85,444 179.14,444 " fill="none" id="&#12518;&#12540;&#12470;&#12540;-to-&#29031;&#21512;&#12377;&#12427;" style="stroke:#181818;stroke-width:1.0;"/><polygon fill="#181818" points="184.23,444,175.23,440,179.23,444,175.23,448,184.23,444" style="stroke:#181818;stroke-width:1.0;"/></g><!--link ???? to ???????--><g id="link_&#12518;&#12540;&#12470;&#12540;_&#29031;&#21512;&#32080;&#26524;&#12434;&#30906;&#35469;"><path d="M62.01,468.8 C65.86,471.52 69.9,474.02 74,476 C102.32,489.69 136.01,498.08 165.28,503.19 " fill="none" id="&#12518;&#12540;&#12470;&#12540;-to-&#29031;&#21512;&#32080;&#26524;&#12434;&#30906;&#35469;" style="stroke:#181818;stroke-width:1.0;"/><polygon fill="#181818" points="170.31,504.04,162.0977,498.6033,165.3792,503.2111,160.7714,506.4925,170.31,504.04" style="stroke:#181818;stroke-width:1.0;"/></g><!--link ???? to ???????????--><g id="link_&#12518;&#12540;&#12470;&#12540;_&#29031;&#21512;&#32080;&#26524;&#12434;&#12480;&#12454;&#12531;&#12525;&#12540;&#12489;"><path d="M40.84,482.07 C46.05,503.44 55.81,528.97 74,545 C92.51,561.32 116.65,571.2 140.6,577.12 " fill="none" id="&#12518;&#12540;&#12470;&#12540;-to-&#29031;&#21512;&#32080;&#26524;&#12434;&#12480;&#12454;&#12531;&#12525;&#12540;&#12489;" style="stroke:#181818;stroke-width:1.0;"/><polygon fill="#181818" points="145.71,578.33,137.8654,572.375,140.8429,577.1848,136.0331,580.1623,145.71,578.33" style="stroke:#181818;stroke-width:1.0;"/></g><!--SRC=[oqbDAr4eoLSeoapFA558oInAJIx9pC_ZKipCIyufJKbLqDCFJYqfoSnBXz5w1QMvESZoGQd9gPa59SuPgSdPA1omIW00]--></g></svg>