<?xml version="1.0" encoding="us-ascii" standalone="no"?><svg xmlns="http://www.w3.org/2000/svg" xmlns:xlink="http://www.w3.org/1999/xlink" contentStyleType="text/css" height="473px" preserveAspectRatio="none" style="width:1073px;height:473px;background:#FFFFFF;" version="1.1" viewBox="0 0 1073 473" width="1073px" zoomAndPan="magnify"><defs/><g><rect fill="#FFFFFF" height="292.3281" style="stroke:#181818;stroke-width:1.0;" width="10" x="31" y="91.2969"/><rect fill="#FFFFFF" height="262.1953" style="stroke:#181818;stroke-width:1.0;" width="10" x="182" y="112.4297"/><rect fill="#FFFFFF" height="203.9297" style="stroke:#181818;stroke-width:1.0;" width="10" x="333" y="141.5625"/><rect fill="#FFFFFF" height="145.6641" style="stroke:#181818;stroke-width:1.0;" width="10" x="484" y="170.6953"/><rect fill="#FFFFFF" height="87.3984" style="stroke:#181818;stroke-width:1.0;" width="10" x="834" y="199.8281"/><rect fill="#FFFFFF" height="29.1328" style="stroke:#181818;stroke-width:1.0;" width="10" x="985" y="228.9609"/><line style="stroke:#181818;stroke-width:0.5;stroke-dasharray:5.0,5.0;" x1="36" x2="36" y1="81.2969" y2="392.625"/><line style="stroke:#181818;stroke-width:0.5;stroke-dasharray:5.0,5.0;" x1="186.5" x2="186.5" y1="81.2969" y2="392.625"/><line style="stroke:#181818;stroke-width:0.5;stroke-dasharray:5.0,5.0;" x1="338" x2="338" y1="81.2969" y2="392.625"/><line style="stroke:#181818;stroke-width:0.5;stroke-dasharray:5.0,5.0;" x1="489" x2="489" y1="81.2969" y2="392.625"/><line style="stroke:#181818;stroke-width:0.5;stroke-dasharray:5.0,5.0;" x1="838.5" x2="838.5" y1="81.2969" y2="392.625"/><line style="stroke:#181818;stroke-width:0.5;stroke-dasharray:5.0,5.0;" x1="990" x2="990" y1="81.2969" y2="392.625"/><text fill="#000000" font-family="sans-serif" font-size="14" lengthAdjust="spacing" textLength="56" x="5" y="77.9951">&#12518;&#12540;&#12470;&#12540;</text><ellipse cx="36" cy="13.5" fill="#E2E2F0" rx="8" ry="8" style="stroke:#181818;stroke-width:0.5;"/><path d="M36,21.5 L36,48.5 M23,29.5 L49,29.5 M36,48.5 L23,63.5 M36,48.5 L49,63.5 " fill="none" style="stroke:#181818;stroke-width:0.5;"/><text fill="#000000" font-family="sans-serif" font-size="14" lengthAdjust="spacing" textLength="56" x="5" y="404.6201">&#12518;&#12540;&#12470;&#12540;</text><ellipse cx="36" cy="416.4219" fill="#E2E2F0" rx="8" ry="8" style="stroke:#181818;stroke-width:0.5;"/><path d="M36,424.4219 L36,451.4219 M23,432.4219 L49,432.4219 M36,451.4219 L23,466.4219 M36,451.4219 L49,466.4219 " fill="none" style="stroke:#181818;stroke-width:0.5;"/><rect fill="#E2E2F0" height="30.2969" rx="2.5" ry="2.5" style="stroke:#181818;stroke-width:0.5;" width="77" x="148.5" y="50"/><text fill="#000000" font-family="sans-serif" font-size="14" lengthAdjust="spacing" textLength="63" x="155.5" y="69.9951">Frontend</text><rect fill="#E2E2F0" height="30.2969" rx="2.5" ry="2.5" style="stroke:#181818;stroke-width:0.5;" width="77" x="148.5" y="391.625"/><text fill="#000000" font-family="sans-serif" font-size="14" lengthAdjust="spacing" textLength="63" x="155.5" y="411.6201">Frontend</text><rect fill="#E2E2F0" height="30.2969" rx="2.5" ry="2.5" style="stroke:#181818;stroke-width:0.5;" width="94" x="291" y="50"/><text fill="#000000" font-family="sans-serif" font-size="14" lengthAdjust="spacing" textLength="80" x="298" y="69.9951">APIGateway</text><rect fill="#E2E2F0" height="30.2969" rx="2.5" ry="2.5" style="stroke:#181818;stroke-width:0.5;" width="94" x="291" y="391.625"/><text fill="#000000" font-family="sans-serif" font-size="14" lengthAdjust="spacing" textLength="80" x="298" y="411.6201">APIGateway</text><rect fill="#E2E2F0" height="30.2969" rx="2.5" ry="2.5" style="stroke:#181818;stroke-width:0.5;" width="68" x="455" y="50"/><text fill="#000000" font-family="sans-serif" font-size="14" lengthAdjust="spacing" textLength="54" x="462" y="69.9951">Lambda</text><rect fill="#E2E2F0" height="30.2969" rx="2.5" ry="2.5" style="stroke:#181818;stroke-width:0.5;" width="68" x="455" y="391.625"/><text fill="#000000" font-family="sans-serif" font-size="14" lengthAdjust="spacing" textLength="54" x="462" y="411.6201">Lambda</text><rect fill="#E2E2F0" height="30.2969" rx="2.5" ry="2.5" style="stroke:#181818;stroke-width:0.5;" width="43" x="817.5" y="50"/><text fill="#000000" font-family="sans-serif" font-size="14" lengthAdjust="spacing" textLength="29" x="824.5" y="69.9951">GAS</text><rect fill="#E2E2F0" height="30.2969" rx="2.5" ry="2.5" style="stroke:#181818;stroke-width:0.5;" width="43" x="817.5" y="391.625"/><text fill="#000000" font-family="sans-serif" font-size="14" lengthAdjust="spacing" textLength="29" x="824.5" y="411.6201">GAS</text><rect fill="#E2E2F0" height="30.2969" rx="2.5" ry="2.5" style="stroke:#181818;stroke-width:0.5;" width="154" x="913" y="50"/><text fill="#000000" font-family="sans-serif" font-size="14" lengthAdjust="spacing" textLength="140" x="920" y="69.9951">GoogleSpreadSheet</text><rect fill="#E2E2F0" height="30.2969" rx="2.5" ry="2.5" style="stroke:#181818;stroke-width:0.5;" width="154" x="913" y="391.625"/><text fill="#000000" font-family="sans-serif" font-size="14" lengthAdjust="spacing" textLength="140" x="920" y="411.6201">GoogleSpreadSheet</text><rect fill="#FFFFFF" height="292.3281" style="stroke:#181818;stroke-width:1.0;" width="10" x="31" y="91.2969"/><rect fill="#FFFFFF" height="262.1953" style="stroke:#181818;stroke-width:1.0;" width="10" x="182" y="112.4297"/><rect fill="#FFFFFF" height="203.9297" style="stroke:#181818;stroke-width:1.0;" width="10" x="333" y="141.5625"/><rect fill="#FFFFFF" height="145.6641" style="stroke:#181818;stroke-width:1.0;" width="10" x="484" y="170.6953"/><rect fill="#FFFFFF" height="87.3984" style="stroke:#181818;stroke-width:1.0;" width="10" x="834" y="199.8281"/><rect fill="#FFFFFF" height="29.1328" style="stroke:#181818;stroke-width:1.0;" width="10" x="985" y="228.9609"/><polygon fill="#181818" points="170,108.4297,180,112.4297,170,116.4297,174,112.4297" style="stroke:#181818;stroke-width:1.0;"/><line style="stroke:#181818;stroke-width:1.0;" x1="41" x2="176" y1="112.4297" y2="112.4297"/><text fill="#000000" font-family="sans-serif" font-size="13" lengthAdjust="spacing" textLength="65" x="48" y="107.3638">&#12450;&#12463;&#12471;&#12519;&#12531;</text><polygon fill="#181818" points="321,137.5625,331,141.5625,321,145.5625,325,141.5625" style="stroke:#181818;stroke-width:1.0;"/><line style="stroke:#181818;stroke-width:1.0;stroke-dasharray:2.0,2.0;" x1="192" x2="327" y1="141.5625" y2="141.5625"/><text fill="#000000" font-family="sans-serif" font-size="13" lengthAdjust="spacing" textLength="72" x="199" y="136.4966">GET: /staffs</text><polygon fill="#181818" points="472,166.6953,482,170.6953,472,174.6953,476,170.6953" style="stroke:#181818;stroke-width:1.0;"/><line style="stroke:#181818;stroke-width:1.0;stroke-dasharray:2.0,2.0;" x1="343" x2="478" y1="170.6953" y2="170.6953"/><text fill="#000000" font-family="sans-serif" font-size="13" lengthAdjust="spacing" textLength="117" x="350" y="165.6294">&#12473;&#12479;&#12483;&#12501;&#19968;&#35239;&#12434;&#21462;&#24471;</text><polygon fill="#181818" points="822,195.8281,832,199.8281,822,203.8281,826,199.8281" style="stroke:#181818;stroke-width:1.0;"/><line style="stroke:#181818;stroke-width:1.0;stroke-dasharray:2.0,2.0;" x1="494" x2="828" y1="199.8281" y2="199.8281"/><text fill="#000000" font-family="sans-serif" font-size="13" lengthAdjust="spacing" textLength="321" x="501" y="194.7622">GET: https://script.google.com/macros/s/xxxx/exec</text><polygon fill="#181818" points="973,224.9609,983,228.9609,973,232.9609,977,228.9609" style="stroke:#181818;stroke-width:1.0;"/><line style="stroke:#181818;stroke-width:1.0;stroke-dasharray:2.0,2.0;" x1="844" x2="979" y1="228.9609" y2="228.9609"/><text fill="#000000" font-family="sans-serif" font-size="13" lengthAdjust="spacing" textLength="117" x="851" y="223.895">&#12473;&#12479;&#12483;&#12501;&#19968;&#35239;&#12434;&#21462;&#24471;</text><polygon fill="#181818" points="855,254.0938,845,258.0938,855,262.0938,851,258.0938" style="stroke:#181818;stroke-width:1.0;"/><line style="stroke:#181818;stroke-width:1.0;stroke-dasharray:2.0,2.0;" x1="849" x2="989" y1="258.0938" y2="258.0938"/><text fill="#000000" font-family="sans-serif" font-size="13" lengthAdjust="spacing" textLength="117" x="861" y="253.0278">&#12473;&#12479;&#12483;&#12501;&#19968;&#35239;&#12434;&#36820;&#21364;</text><polygon fill="#181818" points="505,283.2266,495,287.2266,505,291.2266,501,287.2266" style="stroke:#181818;stroke-width:1.0;"/><line style="stroke:#181818;stroke-width:1.0;stroke-dasharray:2.0,2.0;" x1="499" x2="838" y1="287.2266" y2="287.2266"/><text fill="#000000" font-family="sans-serif" font-size="13" lengthAdjust="spacing" textLength="117" x="511" y="282.1606">&#12473;&#12479;&#12483;&#12501;&#19968;&#35239;&#12434;&#36820;&#21364;</text><polygon fill="#181818" points="354,312.3594,344,316.3594,354,320.3594,350,316.3594" style="stroke:#181818;stroke-width:1.0;"/><line style="stroke:#181818;stroke-width:1.0;stroke-dasharray:2.0,2.0;" x1="348" x2="488" y1="316.3594" y2="316.3594"/><text fill="#000000" font-family="sans-serif" font-size="13" lengthAdjust="spacing" textLength="117" x="360" y="311.2935">&#12473;&#12479;&#12483;&#12501;&#19968;&#35239;&#12434;&#36820;&#21364;</text><polygon fill="#181818" points="203,341.4922,193,345.4922,203,349.4922,199,345.4922" style="stroke:#181818;stroke-width:1.0;"/><line style="stroke:#181818;stroke-width:1.0;stroke-dasharray:2.0,2.0;" x1="197" x2="337" y1="345.4922" y2="345.4922"/><text fill="#000000" font-family="sans-serif" font-size="13" lengthAdjust="spacing" textLength="117" x="209" y="340.4263">&#12473;&#12479;&#12483;&#12501;&#19968;&#35239;&#12434;&#36820;&#21364;</text><polygon fill="#181818" points="52,370.625,42,374.625,52,378.625,48,374.625" style="stroke:#181818;stroke-width:1.0;"/><line style="stroke:#181818;stroke-width:1.0;stroke-dasharray:2.0,2.0;" x1="46" x2="186" y1="374.625" y2="374.625"/><text fill="#000000" font-family="sans-serif" font-size="13" lengthAdjust="spacing" textLength="117" x="58" y="369.5591">&#12473;&#12479;&#12483;&#12501;&#19968;&#35239;&#12434;&#34920;&#31034;</text><!--SRC=[ZL9BJiCm4Dtd5Bv0wtqMI5b0XCIYKhY0STms4ld8jg3iKBn6I8ZF6eHQTYn0_8JeOTo87WCdTeX3InLB_i-yUVDcFCnJ2gIOIl4fynUrEWD4UOIZ32KSxD0quIG90MBwtFhr1hi-ukGOdPJ_vjYos4FnGOXQJxuNjEzfEZeaGKO92eCn8Tnn4ERHaK9hyx8leBUb-RX0vdSoVvJvgnGpAPuQPystMa5FsHj-Bl2tzrq06KV38MlCQ_frHgMBfb_6U9VvN0eXnTNYxNGvdSdyeZY_Bhvk6W2JgzvqH2ymqSQSPyo5a64QPRm_gdBkupI6CS8qPP31YHgGJ0YsA2cfrDHOVsNgo6fLtfMNXkjQnENyiZXxTaAo2TEmt2ZO6Y2LeArNNQ6ExaPnksA_JT4jlgbvqoHsa_q7S_lmVVzXmrJkFm00]--></g></svg>