<?xml version="1.0" encoding="us-ascii" standalone="no"?><svg xmlns="http://www.w3.org/2000/svg" xmlns:xlink="http://www.w3.org/1999/xlink" contentStyleType="text/css" height="574px" preserveAspectRatio="none" style="width:397px;height:574px;background:#FFFFFF;" version="1.1" viewBox="0 0 397 574" width="397px" zoomAndPan="magnify"><defs/><g><!--cluster ReceiptChecker--><g id="cluster_ReceiptChecker"><rect fill="none" height="316" rx="2.5" ry="2.5" style="stroke:#181818;stroke-width:1.0;" width="309" x="82" y="7"/><text fill="#000000" font-family="sans-serif" font-size="14" font-weight="bold" lengthAdjust="spacing" textLength="125" x="174" y="21.9951">ReceiptChecker</text></g><!--cluster Google????????--><g id="cluster_Google&#12459;&#12524;&#12531;&#12480;&#12540;&#12398;&#35373;&#23450;"><path d="M108.5,50 L277.5,50 A3.75,3.75 0 0 1 280,52.5 L287,72.2969 L364.5,72.2969 A2.5,2.5 0 0 1 367,74.7969 L367,296.5 A2.5,2.5 0 0 1 364.5,299 L108.5,299 A2.5,2.5 0 0 1 106,296.5 L106,52.5 A2.5,2.5 0 0 1 108.5,50 " fill="none" style="stroke:#000000;stroke-width:1.5;"/><line style="stroke:#000000;stroke-width:1.5;" x1="106" x2="287" y1="72.2969" y2="72.2969"/><text fill="#000000" font-family="sans-serif" font-size="14" font-weight="bold" lengthAdjust="spacing" textLength="168" x="110" y="64.9951">Google&#12459;&#12524;&#12531;&#12480;&#12540;&#12398;&#35373;&#23450;</text></g><!--cluster GoogleSpreadSheet--><g id="cluster_GoogleSpreadSheet"><rect fill="none" height="221" rx="2.5" ry="2.5" style="stroke:#181818;stroke-width:1.0;" width="224" x="124.5" y="347"/><text fill="#000000" font-family="sans-serif" font-size="14" font-weight="bold" lengthAdjust="spacing" textLength="158" x="157.5" y="361.9951">GoogleSpreadSheet</text></g><!--cluster ???????--><g id="cluster_&#32887;&#21729;&#24773;&#22577;&#12398;&#35373;&#23450;"><path d="M151,390 L250,390 A3.75,3.75 0 0 1 252.5,392.5 L259.5,412.2969 L322,412.2969 A2.5,2.5 0 0 1 324.5,414.7969 L324.5,541.5 A2.5,2.5 0 0 1 322,544 L151,544 A2.5,2.5 0 0 1 148.5,541.5 L148.5,392.5 A2.5,2.5 0 0 1 151,390 " fill="none" style="stroke:#000000;stroke-width:1.5;"/><line style="stroke:#000000;stroke-width:1.5;" x1="148.5" x2="259.5" y1="412.2969" y2="412.2969"/><text fill="#000000" font-family="sans-serif" font-size="14" font-weight="bold" lengthAdjust="spacing" textLength="98" x="152.5" y="404.9951">&#32887;&#21729;&#24773;&#22577;&#12398;&#35373;&#23450;</text></g><g id="elem_&#21462;&#24471;&#12377;&#12427;&#24180;&#26376;&#12434;&#35373;&#23450;"><ellipse cx="236.6379" cy="104.0276" fill="#F1F1F1" rx="83.1379" ry="19.0276" style="stroke:#181818;stroke-width:0.5;"/><text fill="#000000" font-family="sans-serif" font-size="14" lengthAdjust="spacing" textLength="126" x="173.0914" y="107.0594">&#21462;&#24471;&#12377;&#12427;&#24180;&#26376;&#12434;&#35373;&#23450;</text></g><g id="elem_&#21462;&#24471;&#12377;&#12427;&#38283;&#22987;&#26085;&#12392;&#32066;&#20102;&#26085;&#12434;&#35373;&#23450;"><ellipse cx="236.6957" cy="183.8391" fill="#F1F1F1" rx="114.6957" ry="25.3391" style="stroke:#181818;stroke-width:0.5;"/><text fill="#000000" font-family="sans-serif" font-size="14" lengthAdjust="spacing" textLength="196" x="138.6957" y="186.6858">&#21462;&#24471;&#12377;&#12427;&#38283;&#22987;&#26085;&#12392;&#32066;&#20102;&#26085;&#12434;&#35373;&#23450;</text></g><g id="elem_&#29031;&#21512;&#12377;&#12427;&#32887;&#21729;&#12434;&#35373;&#23450;"><ellipse cx="236.6379" cy="264.0276" fill="#F1F1F1" rx="83.1379" ry="19.0276" style="stroke:#181818;stroke-width:0.5;"/><text fill="#000000" font-family="sans-serif" font-size="14" lengthAdjust="spacing" textLength="126" x="173.0914" y="267.0594">&#29031;&#21512;&#12377;&#12427;&#32887;&#21729;&#12434;&#35373;&#23450;</text></g><g id="elem_&#32887;&#21729;&#24773;&#22577;&#12434;&#36861;&#21152;"><ellipse cx="236.4293" cy="441.7859" fill="#F1F1F1" rx="71.9293" ry="16.7859" style="stroke:#181818;stroke-width:0.5;"/><text fill="#000000" font-family="sans-serif" font-size="14" lengthAdjust="spacing" textLength="98" x="184.4293" y="445.5334">&#32887;&#21729;&#24773;&#22577;&#12434;&#36861;&#21152;</text></g><g id="elem_&#32887;&#21729;&#24773;&#22577;&#12434;&#32232;&#38598;"><ellipse cx="236.4293" cy="510.7859" fill="#F1F1F1" rx="71.9293" ry="16.7859" style="stroke:#181818;stroke-width:0.5;"/><text fill="#000000" font-family="sans-serif" font-size="14" lengthAdjust="spacing" textLength="98" x="184.4293" y="514.5334">&#32887;&#21729;&#24773;&#22577;&#12434;&#32232;&#38598;</text></g><!--entity ????--><g id="elem_&#12518;&#12540;&#12470;&#12540;"><ellipse cx="34" cy="234.5" fill="#F1F1F1" rx="8" ry="8" style="stroke:#181818;stroke-width:0.5;"/><path d="M34,242.5 L34,269.5 M21,250.5 L47,250.5 M34,269.5 L21,284.5 M34,269.5 L47,284.5 " fill="none" style="stroke:#181818;stroke-width:0.5;"/><text fill="#000000" font-family="sans-serif" font-size="14" lengthAdjust="spacing" textLength="56" x="6" y="298.9951">&#12518;&#12540;&#12470;&#12540;</text></g><!--link ???? to ?????????--><g id="link_&#12518;&#12540;&#12470;&#12540;_&#21462;&#24471;&#12377;&#12427;&#24180;&#26376;&#12434;&#35373;&#23450;"><path d="M37.32,225.95 C41.03,198.54 50.44,162.71 74,141 C94.31,122.28 122.11,112.4 148.92,107.36 " fill="none" id="&#12518;&#12540;&#12470;&#12540;-to-&#21462;&#24471;&#12377;&#12427;&#24180;&#26376;&#12434;&#35373;&#23450;" style="stroke:#181818;stroke-width:1.0;"/><polygon fill="#181818" points="153.91,106.48,144.3498,104.1129,148.9868,107.353,145.7467,111.99,153.91,106.48" style="stroke:#181818;stroke-width:1.0;"/></g><!--link ???? to ??????????????--><g id="link_&#12518;&#12540;&#12470;&#12540;_&#21462;&#24471;&#12377;&#12427;&#38283;&#22987;&#26085;&#12392;&#32066;&#20102;&#26085;&#12434;&#35373;&#23450;"><path d="M62.2,235.11 C65.96,232.08 69.93,229.28 74,227 C94.25,215.68 117.6,207.24 140.15,200.98 " fill="none" id="&#12518;&#12540;&#12470;&#12540;-to-&#21462;&#24471;&#12377;&#12427;&#38283;&#22987;&#26085;&#12392;&#32066;&#20102;&#26085;&#12434;&#35373;&#23450;" style="stroke:#181818;stroke-width:1.0;"/><polygon fill="#181818" points="145.25,199.6,135.5143,198.1114,140.4265,200.9168,137.6212,205.829,145.25,199.6" style="stroke:#181818;stroke-width:1.0;"/></g><!--link ???? to ?????????--><g id="link_&#12518;&#12540;&#12470;&#12540;_&#29031;&#21512;&#12377;&#12427;&#32887;&#21729;&#12434;&#35373;&#23450;"><path d="M62.04,264 C84.17,264 116.76,264 147.74,264 " fill="none" id="&#12518;&#12540;&#12470;&#12540;-to-&#29031;&#21512;&#12377;&#12427;&#32887;&#21729;&#12434;&#35373;&#23450;" style="stroke:#181818;stroke-width:1.0;"/><polygon fill="#181818" points="153.1,264,144.1,260,148.1,264,144.1,268,153.1,264" style="stroke:#181818;stroke-width:1.0;"/></g><!--link ???? to ???????--><g id="link_&#12518;&#12540;&#12470;&#12540;_&#32887;&#21729;&#24773;&#22577;&#12434;&#36861;&#21152;"><path d="M62.25,288.5 C66.19,292.03 70.2,295.61 74,299 C123.23,342.88 181.15,394.06 212.51,421.73 " fill="none" id="&#12518;&#12540;&#12470;&#12540;-to-&#32887;&#21729;&#24773;&#22577;&#12434;&#36861;&#21152;" style="stroke:#181818;stroke-width:1.0;"/><polygon fill="#181818" points="216.57,425.31,212.4838,416.3488,212.8267,421.9953,207.1802,422.3382,216.57,425.31" style="stroke:#181818;stroke-width:1.0;"/></g><!--link ???? to ???????--><g id="link_&#12518;&#12540;&#12470;&#12540;_&#32887;&#21729;&#24773;&#22577;&#12434;&#32232;&#38598;"><path d="M37.04,302.11 C40.75,356.3 50.5,451.74 74,476 C95.99,498.69 128.94,508.34 159.36,511.96 " fill="none" id="&#12518;&#12540;&#12470;&#12540;-to-&#32887;&#21729;&#24773;&#22577;&#12434;&#32232;&#38598;" style="stroke:#181818;stroke-width:1.0;"/><polygon fill="#181818" points="164.62,512.53,156.0933,507.6009,159.648,512.0014,155.2475,515.556,164.62,512.53" style="stroke:#181818;stroke-width:1.0;"/></g><!--SRC=[oqbDAr4eoLSeoapFA558oInAJIx9pC_ZSamkoIzIUDoyx77pdiTDsu0a5nT8BZ4lFITL8IWrEJMpeCGv8pKvExL8ePfBGQ4WCJaxCJrLmJq_7wZYSTFgnyrh7ZTlVjpS03AXSTsB5MkVhfi5Lgg0Ogw2hgwTWiRJ_cbFzqr_t3ZpSLFtqvrRditfUDmq2Q97amWjBwTrFrtU_MpwqiUDAvvlRNgogmt49cJ2yzRbJoTqG4nuqRZzwUI5A5fgkMgHFGtnMN11KMfYId16Qce9YhyX-fyrjpvTi96mTr5K0-tSl_Tfrm9DuXG_txxYvUmsc0C1]--></g></svg>